<?xml version="1.0" encoding="UTF-8" standalone="no"?>
<!DOCTYPE svg PUBLIC "-//W3C//DTD SVG 1.1//EN"
 "http://www.w3.org/Graphics/SVG/1.1/DTD/svg11.dtd">
<!-- Generated by graphviz version 2.43.0 (0)
 -->
<!-- Title: G Pages: 1 -->
<svg width="2194pt" height="268pt"
 viewBox="0.00 0.00 2193.50 268.00" xmlns="http://www.w3.org/2000/svg" xmlns:xlink="http://www.w3.org/1999/xlink">
<g id="graph0" class="graph" transform="scale(1 1) rotate(0) translate(4 264)">
<title>G</title>
<polygon fill="white" stroke="transparent" points="-4,4 -4,-264 2189.5,-264 2189.5,4 -4,4"/>
<!-- 10000 -->
<g id="node1" class="node">
<title>10000</title>
<polygon fill="none" stroke="black" points="1537.5,-260 1424.5,-260 1424.5,-222 1537.5,-222 1537.5,-260"/>
<text text-anchor="middle" x="1481" y="-244.8" font-family="Times,serif" font-size="14.00">10000</text>
<text text-anchor="middle" x="1481" y="-229.8" font-family="Times,serif" font-size="14.00">Board of Trustees</text>
</g>
<!-- 10100 -->
<g id="node2" class="node">
<title>10100</title>
<polygon fill="none" stroke="black" points="1514.5,-186 1447.5,-186 1447.5,-148 1514.5,-148 1514.5,-186"/>
<text text-anchor="middle" x="1481" y="-170.8" font-family="Times,serif" font-size="14.00">10100</text>
<text text-anchor="middle" x="1481" y="-155.8" font-family="Times,serif" font-size="14.00">President</text>
</g>
<!-- 10100&#45;&gt;10000 -->
<g id="edge1" class="edge">
<title>10100&#45;&gt;10000</title>
<path fill="none" stroke="black" d="M1481,-186.06C1481,-186.06 1481,-211.75 1481,-211.75"/>
<polygon fill="black" stroke="black" points="1477.5,-211.75 1481,-221.75 1484.5,-211.75 1477.5,-211.75"/>
</g>
<!-- 10200 -->
<g id="node3" class="node">
<title>10200</title>
<polygon fill="none" stroke="black" points="1046,-112 988,-112 988,-74 1046,-74 1046,-112"/>
<text text-anchor="middle" x="1017" y="-96.8" font-family="Times,serif" font-size="14.00">10200</text>
<text text-anchor="middle" x="1017" y="-81.8" font-family="Times,serif" font-size="14.00">Provost</text>
</g>
<!-- 10200&#45;&gt;10100 -->
<g id="edge2" class="edge">
<title>10200&#45;&gt;10100</title>
<path fill="none" stroke="black" d="M1017,-112.06C1017,-136.84 1017,-177 1017,-177 1017,-177 1437.26,-177 1437.26,-177"/>
<polygon fill="black" stroke="black" points="1437.26,-180.5 1447.26,-177 1437.26,-173.5 1437.26,-180.5"/>
</g>
<!-- 10300 -->
<g id="node4" class="node">
<title>10300</title>
<polygon fill="none" stroke="black" points="1174,-112 1064,-112 1064,-74 1174,-74 1174,-112"/>
<text text-anchor="middle" x="1119" y="-96.8" font-family="Times,serif" font-size="14.00">10300</text>
<text text-anchor="middle" x="1119" y="-81.8" font-family="Times,serif" font-size="14.00">Communications</text>
</g>
<!-- 10300&#45;&gt;10100 -->
<g id="edge3" class="edge">
<title>10300&#45;&gt;10100</title>
<path fill="none" stroke="black" d="M1119,-112.06C1119,-133.98 1119,-167 1119,-167 1119,-167 1437.27,-167 1437.27,-167"/>
<polygon fill="black" stroke="black" points="1437.27,-170.5 1447.27,-167 1437.27,-163.5 1437.27,-170.5"/>
</g>
<!-- 10400 -->
<g id="node5" class="node">
<title>10400</title>
<polygon fill="none" stroke="black" points="1353.5,-112 1192.5,-112 1192.5,-74 1353.5,-74 1353.5,-112"/>
<text text-anchor="middle" x="1273" y="-96.8" font-family="Times,serif" font-size="14.00">10400</text>
<text text-anchor="middle" x="1273" y="-81.8" font-family="Times,serif" font-size="14.00">Institutional Advancement</text>
</g>
<!-- 10400&#45;&gt;10100 -->
<g id="edge4" class="edge">
<title>10400&#45;&gt;10100</title>
<path fill="none" stroke="black" d="M1273,-112.15C1273,-131.32 1273,-158 1273,-158 1273,-158 1437.12,-158 1437.12,-158"/>
<polygon fill="black" stroke="black" points="1437.12,-161.5 1447.12,-158 1437.12,-154.5 1437.12,-161.5"/>
</g>
<!-- 10500 -->
<g id="node6" class="node">
<title>10500</title>
<polygon fill="none" stroke="black" points="1470.5,-112 1371.5,-112 1371.5,-74 1470.5,-74 1470.5,-112"/>
<text text-anchor="middle" x="1421" y="-96.8" font-family="Times,serif" font-size="14.00">10500</text>
<text text-anchor="middle" x="1421" y="-81.8" font-family="Times,serif" font-size="14.00">Student Affairs</text>
</g>
<!-- 10500&#45;&gt;10100 -->
<g id="edge5" class="edge">
<title>10500&#45;&gt;10100</title>
<path fill="none" stroke="black" d="M1459,-112.06C1459,-112.06 1459,-137.75 1459,-137.75"/>
<polygon fill="black" stroke="black" points="1455.5,-137.75 1459,-147.75 1462.5,-137.75 1455.5,-137.75"/>
</g>
<!-- 10600 -->
<g id="node7" class="node">
<title>10600</title>
<polygon fill="none" stroke="black" points="1595.5,-112 1488.5,-112 1488.5,-74 1595.5,-74 1595.5,-112"/>
<text text-anchor="middle" x="1542" y="-96.8" font-family="Times,serif" font-size="14.00">10600</text>
<text text-anchor="middle" x="1542" y="-81.8" font-family="Times,serif" font-size="14.00">General Counsel</text>
</g>
<!-- 10600&#45;&gt;10100 -->
<g id="edge6" class="edge">
<title>10600&#45;&gt;10100</title>
<path fill="none" stroke="black" d="M1501.5,-112.06C1501.5,-112.06 1501.5,-137.75 1501.5,-137.75"/>
<polygon fill="black" stroke="black" points="1498,-137.75 1501.5,-147.75 1505,-137.75 1498,-137.75"/>
</g>
<!-- 10700 -->
<g id="node8" class="node">
<title>10700</title>
<polygon fill="none" stroke="black" points="1790,-112 1614,-112 1614,-74 1790,-74 1790,-112"/>
<text text-anchor="middle" x="1702" y="-96.8" font-family="Times,serif" font-size="14.00">10700</text>
<text text-anchor="middle" x="1702" y="-81.8" font-family="Times,serif" font-size="14.00">Diversity Equity &amp; Inclusion</text>
</g>
<!-- 10700&#45;&gt;10100 -->
<g id="edge7" class="edge">
<title>10700&#45;&gt;10100</title>
<path fill="none" stroke="black" d="M1702,-112.15C1702,-131.32 1702,-158 1702,-158 1702,-158 1524.57,-158 1524.57,-158"/>
<polygon fill="black" stroke="black" points="1524.57,-154.5 1514.57,-158 1524.57,-161.5 1524.57,-154.5"/>
</g>
<!-- 10800 -->
<g id="node9" class="node">
<title>10800</title>
<polygon fill="none" stroke="black" points="1968,-112 1808,-112 1808,-74 1968,-74 1968,-112"/>
<text text-anchor="middle" x="1888" y="-96.8" font-family="Times,serif" font-size="14.00">10800</text>
<text text-anchor="middle" x="1888" y="-81.8" font-family="Times,serif" font-size="14.00">Finance &amp; Administration</text>
</g>
<!-- 10800&#45;&gt;10100 -->
<g id="edge8" class="edge">
<title>10800&#45;&gt;10100</title>
<path fill="none" stroke="black" d="M1888,-112.06C1888,-133.98 1888,-167 1888,-167 1888,-167 1524.65,-167 1524.65,-167"/>
<polygon fill="black" stroke="black" points="1524.65,-163.5 1514.65,-167 1524.65,-170.5 1524.65,-163.5"/>
</g>
<!-- 10900 -->
<g id="node10" class="node">
<title>10900</title>
<polygon fill="none" stroke="black" points="2185.5,-112 1986.5,-112 1986.5,-74 2185.5,-74 2185.5,-112"/>
<text text-anchor="middle" x="2086" y="-96.8" font-family="Times,serif" font-size="14.00">10900</text>
<text text-anchor="middle" x="2086" y="-81.8" font-family="Times,serif" font-size="14.00">Information Technology Services</text>
</g>
<!-- 10900&#45;&gt;10100 -->
<g id="edge9" class="edge">
<title>10900&#45;&gt;10100</title>
<path fill="none" stroke="black" d="M2086,-112.06C2086,-136.84 2086,-177 2086,-177 2086,-177 1524.82,-177 1524.82,-177"/>
<polygon fill="black" stroke="black" points="1524.82,-173.5 1514.82,-177 1524.82,-180.5 1524.82,-173.5"/>
</g>
<!-- 20000 -->
<g id="node11" class="node">
<title>20000</title>
<polygon fill="none" stroke="black" points="174,-38 0,-38 0,0 174,0 174,-38"/>
<text text-anchor="middle" x="87" y="-22.8" font-family="Times,serif" font-size="14.00">20000</text>
<text text-anchor="middle" x="87" y="-7.8" font-family="Times,serif" font-size="14.00">College of Arts and Sciences</text>
</g>
<!-- 20000&#45;&gt;10200 -->
<g id="edge10" class="edge">
<title>20000&#45;&gt;10200</title>
<path fill="none" stroke="black" d="M87,-38.31C87,-63.94 87,-106 87,-106 87,-106 977.89,-106 977.89,-106"/>
<polygon fill="black" stroke="black" points="977.89,-109.5 987.89,-106 977.89,-102.5 977.89,-109.5"/>
</g>
<!-- 30000 -->
<g id="node12" class="node">
<title>30000</title>
<polygon fill="none" stroke="black" points="415.5,-38 192.5,-38 192.5,0 415.5,0 415.5,-38"/>
<text text-anchor="middle" x="304" y="-22.8" font-family="Times,serif" font-size="14.00">30000</text>
<text text-anchor="middle" x="304" y="-7.8" font-family="Times,serif" font-size="14.00">Graduate School of Arts and Sciences</text>
</g>
<!-- 30000&#45;&gt;10200 -->
<g id="edge11" class="edge">
<title>30000&#45;&gt;10200</title>
<path fill="none" stroke="black" d="M304,-38.2C304,-62.15 304,-100 304,-100 304,-100 977.72,-100 977.72,-100"/>
<polygon fill="black" stroke="black" points="977.72,-103.5 987.72,-100 977.72,-96.5 977.72,-103.5"/>
</g>
<!-- 40000 -->
<g id="node13" class="node">
<title>40000</title>
<polygon fill="none" stroke="black" points="490.5,-38 433.5,-38 433.5,0 490.5,0 490.5,-38"/>
<text text-anchor="middle" x="462" y="-22.8" font-family="Times,serif" font-size="14.00">40000</text>
<text text-anchor="middle" x="462" y="-7.8" font-family="Times,serif" font-size="14.00">Library</text>
</g>
<!-- 40000&#45;&gt;10200 -->
<g id="edge12" class="edge">
<title>40000&#45;&gt;10200</title>
<path fill="none" stroke="black" d="M462,-38.06C462,-59.98 462,-93 462,-93 462,-93 977.94,-93 977.94,-93"/>
<polygon fill="black" stroke="black" points="977.94,-96.5 987.94,-93 977.94,-89.5 977.94,-96.5"/>
</g>
<!-- 45000 -->
<g id="node14" class="node">
<title>45000</title>
<polygon fill="none" stroke="black" points="757,-38 509,-38 509,0 757,0 757,-38"/>
<text text-anchor="middle" x="633" y="-22.8" font-family="Times,serif" font-size="14.00">45000</text>
<text text-anchor="middle" x="633" y="-7.8" font-family="Times,serif" font-size="14.00">School for Social Policy and Management</text>
</g>
<!-- 45000&#45;&gt;10200 -->
<g id="edge13" class="edge">
<title>45000&#45;&gt;10200</title>
<path fill="none" stroke="black" d="M633,-38.3C633,-58.41 633,-87 633,-87 633,-87 977.82,-87 977.82,-87"/>
<polygon fill="black" stroke="black" points="977.82,-90.5 987.82,-87 977.82,-83.5 977.82,-90.5"/>
</g>
<!-- 50000 -->
<g id="node15" class="node">
<title>50000</title>
<polygon fill="none" stroke="black" points="896.5,-38 775.5,-38 775.5,0 896.5,0 896.5,-38"/>
<text text-anchor="middle" x="836" y="-22.8" font-family="Times,serif" font-size="14.00">50000</text>
<text text-anchor="middle" x="836" y="-7.8" font-family="Times,serif" font-size="14.00">School of Business</text>
</g>
<!-- 50000&#45;&gt;10200 -->
<g id="edge14" class="edge">
<title>50000&#45;&gt;10200</title>
<path fill="none" stroke="black" d="M836,-38.28C836,-56.48 836,-81 836,-81 836,-81 977.92,-81 977.92,-81"/>
<polygon fill="black" stroke="black" points="977.92,-84.5 987.92,-81 977.92,-77.5 977.92,-84.5"/>
</g>
<!-- 55000 -->
<g id="node16" class="node">
<title>55000</title>
<polygon fill="none" stroke="black" points="1119.5,-38 914.5,-38 914.5,0 1119.5,0 1119.5,-38"/>
<text text-anchor="middle" x="1017" y="-22.8" font-family="Times,serif" font-size="14.00">55000</text>
<text text-anchor="middle" x="1017" y="-7.8" font-family="Times,serif" font-size="14.00">Office of Research Administration</text>
</g>
<!-- 55000&#45;&gt;10200 -->
<g id="edge15" class="edge">
<title>55000&#45;&gt;10200</title>
<path fill="none" stroke="black" d="M996.29,-38.06C996.29,-38.06 996.29,-63.75 996.29,-63.75"/>
<polygon fill="black" stroke="black" points="992.79,-63.75 996.29,-73.75 999.79,-63.75 992.79,-63.75"/>
</g>
<!-- 60000 -->
<g id="node17" class="node">
<title>60000</title>
<polygon fill="none" stroke="black" points="1314.5,-38 1137.5,-38 1137.5,0 1314.5,0 1314.5,-38"/>
<text text-anchor="middle" x="1226" y="-22.8" font-family="Times,serif" font-size="14.00">60000</text>
<text text-anchor="middle" x="1226" y="-7.8" font-family="Times,serif" font-size="14.00">School of Continuing Studies</text>
</g>
<!-- 60000&#45;&gt;10200 -->
<g id="edge16" class="edge">
<title>60000&#45;&gt;10200</title>
<path fill="none" stroke="black" d="M1155.75,-38.2C1155.75,-41.56 1155.75,-44 1155.75,-44 1155.75,-44 1004.57,-44 1004.57,-44 1004.57,-44 1004.57,-63.92 1004.57,-63.92"/>
<polygon fill="black" stroke="black" points="1001.07,-63.91 1004.57,-73.92 1008.07,-63.92 1001.07,-63.91"/>
</g>
<!-- 70000 -->
<g id="node18" class="node">
<title>70000</title>
<polygon fill="none" stroke="black" points="1561,-38 1333,-38 1333,0 1561,0 1561,-38"/>
<text text-anchor="middle" x="1447" y="-22.8" font-family="Times,serif" font-size="14.00">70000</text>
<text text-anchor="middle" x="1447" y="-7.8" font-family="Times,serif" font-size="14.00">Office of the Vice Provost of Research</text>
</g>
<!-- 70000&#45;&gt;10200 -->
<g id="edge17" class="edge">
<title>70000&#45;&gt;10200</title>
<path fill="none" stroke="black" d="M1343.25,-38.1C1343.25,-44.48 1343.25,-50 1343.25,-50 1343.25,-50 1012.86,-50 1012.86,-50 1012.86,-50 1012.86,-63.76 1012.86,-63.76"/>
<polygon fill="black" stroke="black" points="1009.36,-63.76 1012.86,-73.76 1016.36,-63.76 1009.36,-63.76"/>
</g>
<!-- 80000 -->
<g id="node19" class="node">
<title>80000</title>
<polygon fill="none" stroke="black" points="1767,-38 1579,-38 1579,0 1767,0 1767,-38"/>
<text text-anchor="middle" x="1673" y="-22.8" font-family="Times,serif" font-size="14.00">80000</text>
<text text-anchor="middle" x="1673" y="-7.8" font-family="Times,serif" font-size="14.00">Office of Institutional Research</text>
</g>
<!-- 80000&#45;&gt;10200 -->
<g id="edge18" class="edge">
<title>80000&#45;&gt;10200</title>
<path fill="none" stroke="black" d="M1587.25,-38.37C1587.25,-47.32 1587.25,-56 1587.25,-56 1587.25,-56 1021.14,-56 1021.14,-56 1021.14,-56 1021.14,-63.63 1021.14,-63.63"/>
<polygon fill="black" stroke="black" points="1017.64,-63.63 1021.14,-73.63 1024.64,-63.63 1017.64,-63.63"/>
</g>
<!-- 85000 -->
<g id="node20" class="node">
<title>85000</title>
<polygon fill="none" stroke="black" points="1872.5,-38 1785.5,-38 1785.5,0 1872.5,0 1872.5,-38"/>
<text text-anchor="middle" x="1829" y="-22.8" font-family="Times,serif" font-size="14.00">85000</text>
<text text-anchor="middle" x="1829" y="-7.8" font-family="Times,serif" font-size="14.00">Art Museum</text>
</g>
<!-- 85000&#45;&gt;10200 -->
<g id="edge19" class="edge">
<title>85000&#45;&gt;10200</title>
<path fill="none" stroke="black" d="M1799,-38.24C1799,-49.69 1799,-62 1799,-62 1799,-62 1029.43,-62 1029.43,-62 1029.43,-62 1029.43,-63.9 1029.43,-63.9"/>
<polygon fill="black" stroke="black" points="1025.93,-63.9 1029.43,-73.9 1032.93,-63.9 1025.93,-63.9"/>
</g>
<!-- 90000 -->
<g id="node21" class="node">
<title>90000</title>
<polygon fill="none" stroke="black" points="2017,-38 1891,-38 1891,0 2017,0 2017,-38"/>
<text text-anchor="middle" x="1954" y="-22.8" font-family="Times,serif" font-size="14.00">90000</text>
<text text-anchor="middle" x="1954" y="-7.8" font-family="Times,serif" font-size="14.00">Centers &amp; Institutes</text>
</g>
<!-- 90000&#45;&gt;10200 -->
<g id="edge20" class="edge">
<title>90000&#45;&gt;10200</title>
<path fill="none" stroke="black" d="M1929.5,-38.08C1929.5,-51.84 1929.5,-68 1929.5,-68 1929.5,-68 1037.71,-68 1037.71,-68 1037.71,-68 1037.71,-68.58 1037.71,-68.58"/>
<polygon fill="black" stroke="black" points="1034.21,-63.8 1037.71,-73.8 1041.21,-63.8 1034.21,-63.8"/>
</g>
</g>
</svg>
